<?xml version="1.0" encoding="UTF-8"?>
<svg width="19px" height="16px" viewBox="0 0 19 16" version="1.1" xmlns="http://www.w3.org/2000/svg" xmlns:xlink="http://www.w3.org/1999/xlink">
    <!-- Generator: Sketch 60.1 (88133) - https://sketch.com -->
    <title>iconmonstr-favorite-4</title>
    <desc>Created with Sketch.</desc>
    <g id="Page-1" stroke="none" stroke-width="1" fill="none" fill-rule="evenodd">
        <g id="Single-Video-Page" transform="translate(-614.000000, -754.000000)" fill="#333232" fill-rule="nonzero">
            <g id="iconmonstr-favorite-4" transform="translate(614.000000, 754.000000)">
                <path d="M4.97166667,1.4545451 C7.5335,1.45527273 8.908625,3.99345455 9.5,5.11345455 C10.09375,3.98836364 11.454625,1.46181818 14.0330833,1.46181818 C15.6623333,1.46181818 17.4166667,2.41381818 17.4166667,4.50327273 C17.4166667,7.00654545 13.661,10.2130909 9.5,13.9578182 C5.33741667,10.2116364 1.58333333,7.00581818 1.58333333,4.50327273 C1.58333333,2.55709091 3.13895833,1.45381818 4.97166667,1.4545451 Z M4.97245833,0 C2.45258333,0 0,1.59054545 0,4.50327273 C0,7.89309091 4.40958333,11.3592727 9.5,16 C14.5904167,11.3592727 19,7.89309091 19,4.50327273 C19,1.58618182 16.5482083,0.00727272727 14.0330833,0.00727272727 C12.28825,0.00727272727 10.5133333,0.765090909 9.5,2.36218182 C8.48270833,0.757818182 6.71175,0 4.97245833,0 Z" id="Shape"></path>
            </g>
        </g>
    </g>
</svg>