<?xml version="1.0" encoding="UTF-8"?>
<svg width="24px" height="24px" viewBox="0 0 24 24" version="1.1" xmlns="http://www.w3.org/2000/svg" xmlns:xlink="http://www.w3.org/1999/xlink">
    <!-- Generator: Sketch 60.1 (88133) - https://sketch.com -->
    <title>iconmonstr-time-3</title>
    <desc>Created with Sketch.</desc>
    <g id="Page-1" stroke="none" stroke-width="1" fill="none" fill-rule="evenodd">
        <g id="Home---Logged-In" transform="translate(-57.000000, -371.000000)" fill="#7D7878" fill-rule="nonzero">
            <g id="iconmonstr-time-3" transform="translate(57.000000, 371.000000)">
                <path d="M12,2 C17.514,2 22,6.486 22,12 C22,17.514 17.514,22 12,22 C6.486,22 2,17.514 2,12 C2,6.486 6.486,2 12,2 Z M12,0 C5.373,0 0,5.373 0,12 C0,18.627 5.373,24 12,24 C18.627,24 24,18.627 24,12 C24,5.373 18.627,0 12,0 Z M17.848,12.459 C18.05,12.497 18.05,12.792 17.849,12.831 C15.942,13.192 11.804,13.942 11.302,13.942 C10.583,13.942 10.001,13.36 10.001,12.641 C10.001,12.129 10.771,7.194 11.126,5.196 C11.16,5.004 11.438,5.015 11.469,5.21 L12.454,11.448 L17.848,12.459 Z" id="Shape"></path>
            </g>
        </g>
    </g>
</svg>