<?xml version="1.0" encoding="utf-8"?>
<!-- Generator: Adobe Illustrator 23.1.0, SVG Export Plug-In . SVG Version: 6.00 Build 0)  -->
<svg version="1.1" id="Layer_1" xmlns="http://www.w3.org/2000/svg" xmlns:xlink="http://www.w3.org/1999/xlink" x="0px" y="0px"
	 viewBox="0 0 149 36" style="enable-background:new 0 0 149 36;" xml:space="preserve">
<style type="text/css">
	.st0{fill-rule:evenodd;clip-rule:evenodd;fill:#2C9DC5;}
	.st1{fill-rule:evenodd;clip-rule:evenodd;fill:#FFFFFF;}
	.st2{enable-background:new    ;}
	.st3{fill:#2C9DC5;}
</style>
<title>Group 3</title>
<desc>Created with Sketch.</desc>
<g id="Page-1">
	<g id="Home---Logged-Out" transform="translate(-57.000000, -56.000000)">
		<g id="Group-3" transform="translate(57.000000, 53.000000)">
			<rect id="Rectangle" y="3" class="st0" width="44" height="36"/>
			<g id="iconmonstr-email-17" transform="translate(10.000000, 12.000000)">
				<path id="Shape" class="st1" d="M23,18H0V0h23V18z M21.1,2H1.9v14h19.2V2z M16.3,13H6.7c-2.1,0-3.8-1.8-3.8-4s1.7-4,3.8-4
					s3.8,1.8,3.8,4c0,0.7-0.2,1.4-0.5,2H13c-0.3-0.6-0.5-1.3-0.5-2c0-2.2,1.7-4,3.8-4s3.8,1.8,3.8,4S18.4,13,16.3,13z M6.7,7
					c1.1,0,1.9,0.9,1.9,2s-0.9,2-1.9,2s-1.9-0.9-1.9-2S5.7,7,6.7,7z M16.3,7c1.1,0,1.9,0.9,1.9,2s-0.9,2-1.9,2s-1.9-0.9-1.9-2
					S15.2,7,16.3,7z"/>
			</g>
			<g id="YuTell-2" transform="translate(55.000000, 0.000000)">
				<g class="st2">
					<path class="st3" d="M8.9,20.4l5.1-9.8h3.8l-7.1,13.1V32H7.1v-8.2L0,10.6h3.8L8.9,20.4z"/>
					<path class="st3" d="M31.6,32l-0.5-2.1H31c-0.5,0.8-1.2,1.3-2,1.8c-0.9,0.4-1.9,0.6-3,0.6c-2,0-3.4-0.5-4.4-1.5
						s-1.5-2.5-1.5-4.4V15.8h3.5v10c0,1.2,0.3,2.2,0.8,2.8s1.3,0.9,2.4,0.9c1.4,0,2.5-0.4,3.2-1.3c0.7-0.9,1-2.3,1-4.3v-8.1h3.5V32
						H31.6z"/>
					<path class="st3" d="M47,32h-3.5V13.6h-6.3v-3h16.1v3H47V32z"/>
					<path class="st3" d="M63.3,32.3c-2.5,0-4.5-0.7-5.9-2.2c-1.4-1.5-2.1-3.5-2.1-6.1c0-2.6,0.7-4.7,2-6.2s3.1-2.3,5.4-2.3
						c2.1,0,3.8,0.6,5.1,1.9s1.9,3.1,1.9,5.4v1.9H58.8c0,1.6,0.5,2.8,1.3,3.6c0.8,0.8,1.9,1.3,3.4,1.3c1,0,1.8-0.1,2.7-0.3
						c0.8-0.2,1.7-0.5,2.7-0.9v2.8c-0.8,0.4-1.7,0.7-2.5,0.8S64.4,32.3,63.3,32.3z M62.7,18.1c-1.1,0-2,0.3-2.6,1
						c-0.7,0.7-1.1,1.7-1.2,3h7.4c0-1.3-0.3-2.4-1-3C64.6,18.5,63.8,18.1,62.7,18.1z"/>
					<path class="st3" d="M77,32h-3.4V9.2H77V32z"/>
					<path class="st3" d="M85.3,32h-3.4V9.2h3.4V32z"/>
				</g>
			</g>
		</g>
	</g>
</g>
</svg>
