<?xml version="1.0" encoding="UTF-8"?>
<svg width="23px" height="23px" viewBox="0 0 23 23" version="1.1" xmlns="http://www.w3.org/2000/svg" xmlns:xlink="http://www.w3.org/1999/xlink">
    <!-- Generator: Sketch 60.1 (88133) - https://sketch.com -->
    <title>iconmonstr-coin-1</title>
    <desc>Created with Sketch.</desc>
    <g id="Page-1" stroke="none" stroke-width="1" fill="none" fill-rule="evenodd">
        <g id="Single-Video-Page" transform="translate(-58.000000, -643.000000)" fill="#2C9DC5" fill-rule="nonzero">
            <g id="iconmonstr-coin-1" transform="translate(58.000000, 643.000000)">
                <path d="M11.5,0 C5.149125,0 0,5.149125 0,11.5 C0,17.850875 5.149125,23 11.5,23 C17.850875,23 23,17.850875 23,11.5 C23,5.149125 17.850875,0 11.5,0 Z M12.4583333,16.240875 L12.4583333,17.25 L11.5,17.25 L11.5,16.2935833 C10.508125,16.2763333 9.48175,16.039625 8.625,15.596875 L9.06104167,14.021375 C9.97720833,14.3769167 11.1971667,14.7545 12.1516667,14.538875 C13.2527917,14.2897083 13.478,13.1569583 12.2609167,12.6116667 C11.3687083,12.19575 8.64033333,11.8402083 8.64033333,9.50379167 C8.64033333,8.19758333 9.63604167,7.02841667 11.5,6.77254167 L11.5,5.75 L12.4583333,5.75 L12.4583333,6.72558333 C13.1521667,6.74379167 13.9303333,6.86454167 14.7985833,7.12808333 L14.4516667,8.70645833 C13.7156667,8.44770833 12.9020417,8.21291667 12.1104583,8.26083333 C10.6835,8.34420833 10.5579583,9.5795 11.5536667,10.097 C13.1943333,10.8684583 15.3333355,11.4405833 15.3333355,13.4962083 C15.33525,15.142625 14.0462917,16.0185417 12.4583333,16.240875 Z" id="Shape"></path>
            </g>
        </g>
    </g>
</svg>