<?xml version="1.0" encoding="UTF-8"?>
<svg width="24px" height="24px" viewBox="0 0 24 24" version="1.1" xmlns="http://www.w3.org/2000/svg" xmlns:xlink="http://www.w3.org/1999/xlink">
    <!-- Generator: Sketch 60.1 (88133) - https://sketch.com -->
    <title>iconmonstr-warning-2</title>
    <desc>Created with Sketch.</desc>
    <g id="Page-1" stroke="none" stroke-width="1" fill="none" fill-rule="evenodd" opacity="0.582589286">
        <g id="Single-Video-Page" transform="translate(-410.000000, -161.000000)" fill="#FFFFFF" fill-rule="nonzero">
            <g id="iconmonstr-warning-2" transform="translate(410.000000, 161.000000)">
                <path d="M12,2 C17.514,2 22,6.486 22,12 C22,17.514 17.514,22 12,22 C6.486,22 2,17.514 2,12 C2,6.486 6.486,2 12,2 Z M12,0 C5.373,0 0,5.373 0,12 C0,18.627 5.373,24 12,24 C18.627,24 24,18.627 24,12 C24,5.373 18.627,0 12,0 Z M11,6 L13,6 L13,14 L11,14 L11,6 Z M12,18.25 C11.31,18.25 10.75,17.69 10.75,17 C10.75,16.31 11.31,15.75 12,15.75 C12.69,15.75 13.25,16.31 13.25,17 C13.25,17.69 12.69,18.25 12,18.25 Z" id="Shape"></path>
            </g>
        </g>
    </g>
</svg>