<?xml version="1.0" encoding="UTF-8"?>
<svg width="16px" height="22px" viewBox="0 0 16 22" version="1.1" xmlns="http://www.w3.org/2000/svg" xmlns:xlink="http://www.w3.org/1999/xlink">
    <!-- Generator: Sketch 60.1 (88133) - https://sketch.com -->
    <title>Shape</title>
    <desc>Created with Sketch.</desc>
    <g id="Page-1" stroke="none" stroke-width="1" fill="none" fill-rule="evenodd">
        <g id="Single-Video-Page" transform="translate(-169.000000, -941.000000)" fill="#7D7878" fill-rule="nonzero">
            <g id="iconmonstr-award-1" transform="translate(169.000000, 941.000000)">
                <path d="M10.8571429,13.75 L12.5714286,13.75 L12.5714286,22 L8.048,19.25 L3.42857143,22 L3.42857143,13.75 L5.10057143,13.75 C6.04914286,14.2835 6.67885714,14.6666667 8,14.6666667 C9.11428571,14.6666667 10.1485714,14.28625 10.8571429,13.75 Z M8,2.75 C5.48,2.75 3.42857143,4.3945 3.42857143,6.41666667 C3.42857143,8.43883333 5.48,10.0833333 8,10.0833333 C10.5211429,10.0833333 12.5714286,8.43883333 12.5714286,6.41666667 C12.5714286,4.3945 10.5211429,2.75 8,2.75 Z M15.9154286,7.58725 C15.9737143,7.722 16,7.8595 16,7.99516667 C16,8.40675 15.7462857,8.80458333 15.2971429,9.05483333 C13.8617143,9.85233333 14.0514286,9.65158333 13.512,10.9495833 C13.2857143,11.4913333 12.632,11.8570833 11.896,11.8570833 L11.8914286,11.8570833 C10.1211429,11.8525 10.4297143,11.7764167 9.00228571,12.5803333 C8.70285714,12.749 8.352,12.8333333 8,12.8333333 C7.648,12.8333333 7.29714286,12.749 6.99885714,12.58125 C5.57142857,11.7764167 5.87885714,11.8534167 4.10971429,11.858 L4.10514286,11.858 C3.368,11.858 2.71542857,11.49225 2.49028571,10.9505 C1.94971429,9.65158333 2.13485714,9.85233333 0.705142857,9.05575 C0.253714286,8.80458333 0,8.40675 0,7.99516667 C0,7.8595 0.0274285714,7.722 0.0845714286,7.58816667 C0.636571429,6.29475 0.637714286,6.54408333 0.0845714286,5.24608333 C0.0274285714,5.11133333 0,4.97383333 0,4.83816667 C0,4.42566667 0.253714286,4.02875 0.704,3.77758333 C2.13371429,2.98191667 1.94857143,3.18358333 2.48914286,1.88283333 C2.71428571,1.34108333 3.368,0.975333333 4.104,0.975333333 L4.10857143,0.975333333 C5.87428571,0.979916667 5.56114286,1.06241667 6.99771429,0.251166667 C7.29714286,0.0834166667 7.648,0 8,0 C8.352,0 8.70285714,0.0834166667 9.00114286,0.251166667 C10.4285714,1.056 10.1211429,0.979916667 11.8902857,0.975333333 L11.8948571,0.975333333 C12.632,0.975333333 13.2845714,1.34108333 13.5108571,1.88283333 C14.0514286,3.18083333 13.8617143,2.98008333 15.296,3.77758333 C15.7462857,4.02783333 16,4.42566667 16,4.83725 C16,4.97291667 15.9737143,5.11133333 15.9154286,5.24516667 C15.3634286,6.53766667 15.3611429,6.28925 15.9154286,7.58725 Z M13.7142857,6.41666667 C13.7142857,3.88575 11.1565714,1.83333333 8,1.83333333 C4.84457143,1.83333333 2.28571429,3.88575 2.28571429,6.41666667 C2.28571429,8.94758333 4.84457143,11 8,11 C11.1565714,11 13.7142857,8.94758333 13.7142857,6.41666667 Z" id="Shape"></path>
            </g>
        </g>
    </g>
</svg>