<?xml version="1.0" encoding="UTF-8"?>
<svg width="24px" height="24px" viewBox="0 0 24 24" version="1.1" xmlns="http://www.w3.org/2000/svg" xmlns:xlink="http://www.w3.org/1999/xlink">
    <!-- Generator: Sketch 60.1 (88133) - https://sketch.com -->
    <title>iconmonstr-magnifier-6</title>
    <desc>Created with Sketch.</desc>
    <g id="Page-1" stroke="none" stroke-width="1" fill="none" fill-rule="evenodd">
        <g id="Single-Video-Page" transform="translate(-828.000000, -61.000000)" fill="#AAAAAA" fill-rule="nonzero">
            <g id="iconmonstr-magnifier-6" transform="translate(828.000000, 61.000000)">
                <path d="M21.172,24 L13.785,16.613 C12.397,17.487 10.761,18 9,18 C4.029,18 0,13.971 0,9 C0,4.029 4.029,0 9,0 C13.971,0 18,4.029 18,9 C18,10.761 17.486,12.398 16.613,13.785 L24,21.172 L21.172,24 Z M9,16 C12.859,16 16,12.86 16,9 C16,5.14 12.859,2 9,2 C5.141,2 2,5.14 2,9 C2,12.86 5.141,16 9,16 Z" id="Shape"></path>
            </g>
        </g>
    </g>
</svg>