<?xml version="1.0" encoding="UTF-8"?>
<svg width="16px" height="16px" viewBox="0 0 16 16" version="1.1" xmlns="http://www.w3.org/2000/svg" xmlns:xlink="http://www.w3.org/1999/xlink">
    <!-- Generator: Sketch 60.1 (88133) - https://sketch.com -->
    <title>iconmonstr-smiley-8</title>
    <desc>Created with Sketch.</desc>
    <g id="Page-1" stroke="none" stroke-width="1" fill="none" fill-rule="evenodd">
        <g id="Single-Video-Page" transform="translate(-452.000000, -753.000000)" fill="#565555" fill-rule="nonzero">
            <g id="iconmonstr-smiley-8" transform="translate(452.000000, 753.000000)">
                <path d="M8,1.33333333 C11.676,1.33333333 14.6666667,4.324 14.6666667,8 C14.6666667,11.676 11.676,14.6666667 8,14.6666667 C4.324,14.6666667 1.33333333,11.676 1.33333333,8 C1.33333333,4.324 4.324,1.33333333 8,1.33333333 Z M8,0 C3.582,0 0,3.582 0,8 C0,12.418 3.582,16 8,16 C12.418,16 16,12.418 16,8 C16,3.582 12.418,0 8,0 Z M12,9.33333333 L4,9.33333333 C4.22066667,10.31 5.88466667,12 8.00066667,12 C10.09,12 11.778,10.3193333 12,9.33333333 Z M12,6.668 L11.4966667,7.00533333 C11.4966667,7.00533333 11.1613333,6.37333333 10.3326667,6.37333333 C9.528,6.37333333 9.16933333,7.00533333 9.16933333,7.00533333 L8.66666667,6.668 C8.854,6.16933333 9.47,5.33333333 10.3326667,5.33333333 C11.196,5.33333333 11.8113333,6.16933333 12,6.668 L12,6.668 Z M7.33333333,6.668 L6.83,7.00533333 C6.83,7.00533333 6.49466667,6.37333333 5.666,6.37333333 C4.86133333,6.37333333 4.50266667,7.00533333 4.50266667,7.00533333 L4,6.668 C4.18733333,6.16933333 4.80333333,5.33333333 5.666,5.33333333 C6.52933333,5.33333333 7.14466667,6.16933333 7.33333333,6.668 L7.33333333,6.668 Z" id="Shape"></path>
            </g>
        </g>
    </g>
</svg>