<?xml version="1.0" encoding="UTF-8"?>
<svg width="44px" height="33px" viewBox="0 0 44 33" version="1.1" xmlns="http://www.w3.org/2000/svg" xmlns:xlink="http://www.w3.org/1999/xlink">
    <!-- Generator: Sketch 60.1 (88133) - https://sketch.com -->
    <title>iconmonstr-picture-8</title>
    <desc>Created with Sketch.</desc>
    <g id="Page-1" stroke="none" stroke-width="1" fill="none" fill-rule="evenodd">
        <g id="My-Profile" transform="translate(-875.000000, -114.000000)" fill="#A4A2A2" fill-rule="nonzero">
            <g id="Group-4" transform="translate(857.000000, 91.000000)">
                <g id="iconmonstr-picture-8" transform="translate(18.000000, 23.000000)">
                    <path d="M35.7966102,16.5 C31.270162,16.5 27.5932203,20.1941667 27.5932203,24.75 C27.5932203,29.3058333 31.270162,33 35.7966102,33 C40.3230584,33 44,29.3058333 44,24.75 C44,20.1941667 40.3230584,16.5 35.7966102,16.5 Z M40.2711864,25.65 L36.6915254,25.65 L36.6915254,29.25 L34.9016949,29.25 L34.9016949,25.65 L31.3220339,25.65 L31.3220339,23.85 L34.9016949,23.85 L34.9016949,20.25 L36.6915254,20.25 L36.6915254,23.85 L40.2711864,23.85 L40.2711864,25.65 Z M7.45762712,25.5 L14.8788353,14.325 L19.4799844,18 L24.1553456,10.5 L27.5932203,16.0575 C25.2351314,18.500625 23.9252882,21.849375 24.2035835,25.5 L7.45762712,25.5 Z M27.1281356,33 L0,33 L0,0 L40.2711864,0 L40.2711864,13.7518333 C39.1307797,13.2733333 37.8970169,12.9781667 36.6101695,12.8791667 L36.6101695,3.66666667 L3.66101695,3.66666667 L3.66101695,29.3333333 L24.7155254,29.3333333 C25.2866441,30.7065 26.1158644,31.944 27.1281356,33 Z M10.0677966,12.75 C8.62698305,12.75 7.45762712,11.57575 7.45762712,10.125 C7.45762712,8.676 8.62698305,7.5 10.0677966,7.5 C11.5086102,7.5 12.6779661,8.676 12.6779661,10.125 C12.6779661,11.57575 11.5086102,12.75 10.0677966,12.75 Z" id="Shape"></path>
                </g>
            </g>
        </g>
    </g>
</svg>