<?xml version="1.0" encoding="UTF-8"?>
<svg width="24px" height="24px" viewBox="0 0 24 24" version="1.1" xmlns="http://www.w3.org/2000/svg" xmlns:xlink="http://www.w3.org/1999/xlink">
    <!-- Generator: Sketch 60.1 (88133) - https://sketch.com -->
    <title>Shape</title>
    <desc>Created with Sketch.</desc>
    <g id="Page-1" stroke="none" stroke-width="1" fill="none" fill-rule="evenodd">
        <g id="Home---Logged-In" transform="translate(-59.000000, -470.000000)" fill="#2C9DC5">
            <g id="iconmonstr-computer-11" transform="translate(59.000000, 470.000000)">
                <path d="M17,24 L7,24 L7,23 C8.533,22.634 9.386,21.428 9.497,20 L14.503,20 C14.614,21.427 15.467,22.634 17,23 L17,24 Z M23,19 C23.265,19 23.52,18.895 23.707,18.707 C23.895,18.52 24,18.265 24,18 L24,1 C24,0.735 23.895,0.48 23.707,0.293 C23.52,0.105 23.265,0 23,0 L1,0 C0.735,0 0.48,0.105 0.293,0.293 C0.105,0.48 0,0.735 0,1 L0,18 C0,18.265 0.105,18.52 0.293,18.707 C0.48,18.895 0.735,19 1,19 L23,19 Z M12,15.581 C12.552,15.581 13,16.029 13,16.581 C13,17.133 12.552,17.581 12,17.581 C11.448,17.581 11,17.133 11,16.581 C11,16.029 11.448,15.581 12,15.581 Z M22,2 L2,2 L2,14 L22,14 L22,2 Z" id="Shape"></path>
            </g>
        </g>
    </g>
</svg>