<?xml version="1.0" encoding="UTF-8"?>
<svg width="1440px" height="158px" viewBox="0 0 1440 158" version="1.1" xmlns="http://www.w3.org/2000/svg" xmlns:xlink="http://www.w3.org/1999/xlink">
    <!-- Generator: Sketch 60.1 (88133) - https://sketch.com -->
    <title>Group 3</title>
    <desc>Created with Sketch.</desc>
    <g id="Page-1" stroke="none" stroke-width="1" fill="none" fill-rule="evenodd">
        <g id="Signup---Log-In" transform="translate(0.000000, -928.000000)" fill="#FFFFFF">
            <g id="Group-3" transform="translate(-96.799524, 895.121094)">
                <path d="M31.9518682,83.9023438 C91.4909307,147.258541 177.561243,169.584061 290.162806,150.878906 C459.065149,122.821174 742.748743,-18.3632812 1021.53781,56.1875 C1300.32687,130.738281 1473.88937,130.417969 1615.49093,107.160156 C1709.89197,91.6549479 1713.61853,123.852865 1626.67062,203.753906 L157.764368,203.753906 L18.4792119,157.855469" id="Path-3" opacity="0.159365699"></path>
                <path d="M1659.14718,0 C1487.74353,131.993336 1162.26697,172.933727 682.717493,122.821174 C-36.6067256,47.6523438 11.2448369,100.597656 1.68624316,100.597656 C-4.68615267,100.597656 7.00264941,134.983073 36.7526494,203.753906 L1297.46749,222.460938 L1651.45968,169.996094" id="Path-4" opacity="0.0761951265"></path>
                <path d="M69.7760869,65.5117187 C360.367233,134.589844 607.181035,155.144531 810.217493,127.175781 C1114.77218,85.2226563 1417.17843,-19.8554688 1603.4714,65.5117187 C1727.66671,122.423177 1742.01307,168.770833 1646.51046,204.554687 L1076.22921,212.625 L90.6979619,195.222656 L58.1354619,136.027344 L69.7760869,65.5117187 Z" id="Path-2" opacity="0.145833333"></path>
            </g>
        </g>
    </g>
</svg>